<svg width="957" height="522" viewBox="0 0 957 522" fill="none" xmlns="http://www.w3.org/2000/svg">
<path d="M889.156 521.92C836.708 521.92 811.443 500.172 809.204 461.476H856.216C857.175 476.187 868.049 482.903 884.359 482.903C898.751 482.903 907.385 477.466 907.385 468.192C907.385 458.278 898.431 456.679 886.598 452.841L866.13 446.445C834.789 436.531 811.123 424.698 811.123 393.037C811.123 361.695 835.109 340.588 879.242 340.588C920.498 340.588 948.001 362.015 952.798 401.032H907.385C906.106 386.321 895.552 379.605 879.562 379.605C867.089 379.605 859.734 384.721 859.734 392.717C859.734 401.671 870.607 404.869 880.841 408.387L899.07 414.464C935.209 426.616 956.636 436.531 956.636 468.831C956.636 501.772 931.051 521.92 889.156 521.92Z" fill="white"/>
<path d="M790.649 516.163H766.023C725.408 516.163 703.341 496.975 703.341 461.156V388.24H675.518V346.665H703.341V288.779H752.591V346.665H794.167V388.24H752.591V455.719C752.591 467.872 758.988 474.588 771.14 474.588H790.649V516.163Z" fill="white"/>
<path d="M603.177 516.163H553.927V346.664H593.583L599.659 381.203C610.533 356.898 630.361 344.105 658.184 344.105H665.54V391.437H658.184C623.645 391.437 603.177 408.707 603.177 437.809V516.163Z" fill="white"/>
<path d="M439.656 521.92C384.01 521.92 349.15 483.542 349.15 430.134C349.15 375.767 386.568 340.588 439.656 340.588C494.983 340.588 530.162 378.325 530.162 430.134C530.162 485.781 493.064 521.92 439.656 521.92ZM439.656 480.664C464.601 480.664 480.592 460.836 480.592 430.134C480.592 400.712 464.601 381.843 439.656 381.843C414.711 381.843 398.721 400.712 398.721 430.134C398.721 460.836 414.711 480.664 439.656 480.664Z" fill="white"/>
<path d="M218.727 516.163H169.477V276.307H218.727V361.376C229.601 348.903 247.51 340.588 268.617 340.588C304.436 340.588 327.782 365.533 327.782 404.23V516.163H278.531V406.789C278.531 392.717 268.937 383.123 252.947 383.123C233.438 383.123 218.727 395.595 218.727 414.144V516.163Z" fill="white"/>
<path d="M79.9522 521.92C27.5036 521.92 2.23866 500.172 0 461.476H47.0119C47.9713 476.187 58.8448 482.903 75.1551 482.903C89.5465 482.903 98.1813 477.466 98.1813 468.192C98.1813 458.278 89.2267 456.679 77.3937 452.841L56.926 446.445C25.5847 436.531 1.91885 424.698 1.91885 393.037C1.91885 361.695 25.9045 340.588 70.0381 340.588C111.293 340.588 138.797 362.015 143.594 401.032H98.1813C96.9021 386.321 86.3484 379.605 70.3579 379.605C57.8854 379.605 50.5298 384.721 50.5298 392.717C50.5298 401.671 61.4033 404.869 71.6372 408.387L89.8663 414.464C126.005 426.616 147.432 436.531 147.432 468.831C147.432 501.772 121.847 521.92 79.9522 521.92Z" fill="white"/>
<path d="M870.862 250.41C815.216 250.41 780.356 212.033 780.356 158.625C780.356 104.257 817.774 69.0781 870.223 69.0781C920.113 69.0781 952.733 100.1 954.013 141.035H906.041C903.483 122.806 889.731 110.333 870.223 110.333C845.917 110.333 829.927 129.202 829.927 158.625C829.927 189.326 846.237 209.154 870.862 209.154C889.731 209.154 903.163 197.002 906.041 177.813H954.013C950.175 221.947 917.235 250.41 870.862 250.41Z" fill="white"/>
<path d="M727.633 58.2052C711.323 58.2052 698.53 45.4129 698.53 28.7828C698.53 12.4726 711.323 0 727.633 0C744.263 0 756.735 12.4726 756.735 28.7828C756.735 45.4129 744.263 58.2052 727.633 58.2052ZM752.258 244.654H703.008V75.1551H752.258V244.654Z" fill="white"/>
<path d="M665.649 244.654H616.398V4.79688H665.649V244.654Z" fill="white"/>
<path d="M510.617 250.41C484.393 250.41 462.326 237.938 453.052 216.83L448.574 244.654H408.918V4.79688H458.169V92.7443C469.682 78.0331 488.87 69.0785 511.257 69.0785C556.03 69.0785 588.011 105.856 588.011 158.945C588.011 212.992 556.03 250.41 510.617 250.41ZM498.145 209.794C521.81 209.794 538.121 189.007 538.121 159.265C538.121 130.162 521.81 109.694 498.145 109.694C474.479 109.694 458.169 129.842 458.169 158.625C458.169 188.687 474.479 209.794 498.145 209.794Z" fill="white"/>
<path d="M275.6 250.41C236.583 250.41 213.237 225.464 213.237 186.768V75.1543H262.488V184.209C262.488 198.281 272.082 207.875 288.712 207.875C308.54 207.875 322.292 195.083 322.292 176.854V75.1543H371.543V244.653H331.886L328.049 221.307C319.414 238.577 299.586 250.41 275.6 250.41Z" fill="white"/>
<path d="M49.8912 308.615H0.640625V75.1545H40.2969L44.7742 100.419C55.0081 81.5507 76.7551 69.0781 102.979 69.0781C147.753 69.0781 179.734 105.856 179.734 158.944C179.734 212.992 147.753 250.41 102.34 250.41C79.6334 250.41 60.7647 241.135 49.8912 225.784V308.615ZM89.8673 209.794C113.533 209.794 129.843 189.006 129.843 159.264C129.843 130.162 113.533 109.694 89.8673 109.694C66.2014 109.694 49.8912 129.842 49.8912 158.625C49.8912 188.687 66.2014 209.794 89.8673 209.794Z" fill="white"/>
</svg>
