<svg width="794" height="396" viewBox="0 0 794 396" xmlns="http://www.w3.org/2000/svg">
<g clip-path="url(#clip0_2498_1137)">
<path d="M729.887 374.742C721.09 375.001 712.95 373.08 705.466 368.979C697.982 364.878 691.972 359.213 687.437 351.984C682.902 344.754 680.504 336.741 680.245 327.945L680.011 320.029L711.198 319.109L711.431 327.025C711.568 331.663 713.365 335.612 716.823 338.871C720.276 341.971 724.321 343.452 728.959 343.315L745.032 342.841C750.15 342.69 754.268 341.208 757.387 338.395C760.505 335.582 762.003 332.096 761.88 327.938C761.715 322.34 758.935 317.62 753.539 313.777C748.303 309.93 740.172 305.608 729.146 300.811C719.089 296.306 710.802 292.148 704.287 288.339C697.927 284.365 692.419 279.405 687.761 273.46C683.099 267.355 680.643 260.064 680.393 251.588C680.148 243.271 682.007 235.773 685.972 229.093C689.932 222.254 695.456 216.888 702.545 212.998C709.793 209.102 718.055 207.018 727.331 206.744L738.606 206.411C747.402 206.152 755.542 208.072 763.026 212.173C770.671 216.27 776.76 221.933 781.295 229.162C785.831 236.391 788.228 244.404 788.488 253.2L788.65 258.718L757.464 259.638L757.301 254.121C757.164 249.483 755.369 245.614 751.916 242.514C748.459 239.255 744.331 237.696 739.533 237.838L728.258 238.17C722.661 238.335 718.453 239.5 715.636 241.664C712.818 243.828 711.466 246.829 711.579 250.668C711.674 253.866 713.763 256.846 717.846 259.607C721.924 262.207 728.425 265.537 737.349 269.596C748.549 274.868 757.736 279.719 764.91 284.149C772.244 288.575 778.658 294.388 784.153 301.589C789.807 308.786 792.779 317.262 793.067 327.018C793.317 335.494 791.386 343.314 787.276 350.478C783.325 357.638 777.651 363.328 770.252 367.548C763.013 371.763 754.916 374.003 745.96 374.267L729.887 374.742Z" "/>
<path d="M590.319 242.24L549.537 243.443L548.609 212.017L661.36 208.69L662.288 240.117L621.505 241.32L625.533 377.821L594.346 378.741L590.319 242.24Z" "/>
<path d="M474.196 322.5L454.045 323.094L455.807 382.828L424.621 383.748L419.666 215.821L485.637 213.875C494.274 213.62 502.171 215.468 509.331 219.418C516.651 223.364 522.496 228.874 526.866 235.949C531.237 243.023 533.547 250.798 533.797 259.274L534.222 273.668C534.51 283.424 532.13 292.298 527.084 300.29C522.037 308.282 515.248 314.165 506.715 317.938L537.372 380.422L503.067 381.434L474.196 322.5ZM487.902 290.641C492.38 290.509 496.016 288.961 498.81 285.998C501.759 282.869 503.168 279.066 503.035 274.588L502.611 260.194C502.483 255.876 500.858 252.323 497.734 249.534C494.766 246.58 491.043 245.169 486.565 245.301L451.78 246.327L453.117 291.668L487.902 290.641Z" "/>
<path d="M333.413 386.439C324.617 386.699 316.399 384.86 308.76 380.924C301.276 376.823 295.188 371.24 290.498 364.175C285.967 357.106 283.577 349.333 283.327 340.857L281.14 266.729C280.89 258.253 282.82 250.432 286.931 243.268C291.196 235.939 296.946 230.087 304.18 225.712C311.57 221.172 319.662 218.772 328.459 218.512L348.61 217.918C357.566 217.654 365.784 219.492 373.263 223.433C380.903 227.37 386.988 232.873 391.518 239.942C396.048 247.011 398.439 254.784 398.689 263.261L400.876 337.388C401.126 345.865 399.118 353.767 394.853 361.096C390.747 368.421 384.999 374.353 377.61 378.893C370.376 383.268 362.361 385.585 353.564 385.845L333.413 386.439ZM314.993 339.922C315.116 344.08 316.901 347.629 320.35 350.569C323.798 353.509 327.841 354.91 332.479 354.773L352.63 354.179C357.268 354.042 361.222 352.404 364.49 349.267C367.759 346.129 369.332 342.481 369.21 338.323L367.023 264.195C366.895 259.877 365.11 256.328 361.666 253.548C358.378 250.604 354.335 249.203 349.537 249.344L329.386 249.939C324.588 250.08 320.554 251.72 317.286 254.858C314.177 257.991 312.684 261.636 312.806 265.795L314.993 339.922Z" "/>
<path d="M172.849 286.731L228.025 285.103L226.15 221.531L257.336 220.611L262.291 388.538L231.104 389.458L228.945 316.29L173.769 317.918L175.928 391.086L144.742 392.006L139.787 224.079L170.974 223.159L172.849 286.731Z" "/>
<path d="M59.2186 394.529C50.4224 394.789 42.2822 392.868 34.798 388.767C27.3138 384.666 21.3041 379.001 16.7689 371.771C12.2337 364.542 9.83639 356.529 9.57686 347.733L9.34328 339.816L40.5297 338.896L40.7633 346.813C40.9001 351.451 42.6974 355.399 46.155 358.659C49.6079 361.758 53.6534 363.24 58.2913 363.103L74.3643 362.629C79.4821 362.478 83.6002 360.996 86.7186 358.182C89.837 355.369 91.3348 351.883 91.2121 347.725C91.047 342.128 88.2666 337.408 82.8709 333.565C77.6352 329.718 69.5042 325.396 58.4779 320.599C48.4207 316.093 40.1344 311.936 33.6193 308.127C27.2593 304.152 21.7506 299.193 17.0933 293.247C12.4312 287.142 9.97509 279.852 9.725 271.375C9.47963 263.059 11.3393 255.561 15.304 248.881C19.264 242.041 24.7882 236.676 31.8765 232.785C39.1248 228.89 47.3869 226.805 56.6629 226.531L67.938 226.199C76.7342 225.939 84.8744 227.86 92.3586 231.961C100.003 236.057 106.092 241.72 110.628 248.95C115.163 256.179 117.56 264.192 117.82 272.988L117.982 278.506L86.796 279.426L86.6332 273.908C86.4963 269.27 84.7014 265.401 81.2485 262.302C77.7909 259.042 73.6631 257.484 68.8652 257.625L57.5901 257.958C51.9926 258.123 47.7851 259.288 44.9677 261.452C42.1503 263.616 40.7982 266.617 40.9114 270.455C41.0058 273.654 43.0946 276.633 47.1778 279.394C51.2563 281.995 57.7573 285.325 66.6809 289.383C77.8812 294.655 87.0683 299.506 94.2421 303.937C101.576 308.362 107.99 314.176 113.485 321.377C119.139 328.573 122.111 337.049 122.399 346.805C122.649 355.281 120.718 363.102 116.608 370.266C112.657 377.426 106.983 383.116 99.584 387.336C92.3451 391.551 84.2477 393.791 75.2916 394.055L59.2186 394.529Z" "/>
<path d="M722.242 169.878C713.766 170.128 705.868 168.28 698.548 164.334C691.384 160.224 685.537 154.634 681.006 147.564C676.636 140.49 674.325 132.715 674.075 124.238L671.888 50.1107C671.638 41.6344 673.488 33.8164 677.439 26.6568C681.545 19.3325 687.055 13.4875 693.969 9.12167C701.038 4.59121 708.811 2.20093 717.287 1.95084L736.479 1.3846C745.115 1.12979 753.013 2.97767 760.173 6.92824C767.492 10.8741 773.337 16.3841 777.708 23.4583C782.079 30.5325 784.389 38.3077 784.639 46.784L785.028 59.9783L753.842 60.8984L753.453 47.7042C753.325 43.3861 751.7 39.8324 748.576 37.0434C745.608 34.0896 741.884 32.6788 737.406 32.8109L718.215 33.3772C713.897 33.5046 710.263 35.1324 707.314 38.2608C704.365 41.3891 702.952 45.0324 703.074 49.1906L705.262 123.318C705.384 127.476 707.01 131.03 710.138 133.979C713.426 136.923 717.15 138.334 721.308 138.212L740.499 137.645C744.818 137.518 748.451 135.89 751.4 132.762C754.349 129.633 755.762 125.99 755.64 121.832L755.25 108.638L786.437 107.718L786.826 120.912C787.076 129.388 785.228 137.286 781.282 144.606C777.337 151.925 771.829 157.85 764.759 162.381C757.685 166.751 749.91 169.061 741.434 169.312L722.242 169.878Z" "/>
<path d="M545.592 143.636L586.374 142.433L583.274 37.3588L542.492 38.5621L541.564 7.13574L654.555 3.80199L655.483 35.2283L614.7 36.4316L617.8 141.506L658.583 140.303L659.51 171.729L546.519 175.063L545.592 143.636Z" "/>
<path d="M413.619 10.9106L444.806 9.9905L448.833 146.491L527.599 144.167L528.526 175.593L418.574 178.838L413.619 10.9106Z" "/>
<path d="M276.805 14.9473L336.059 13.199C344.695 12.9442 352.673 14.7897 359.993 18.7356C367.312 22.6814 373.157 28.1914 377.528 35.2656C381.898 42.3398 384.209 50.115 384.459 58.5914L384.579 62.6696C384.89 73.225 381.973 82.8352 375.825 91.5003C380.436 95.8462 384.105 100.86 386.834 106.542C389.563 112.224 391.024 118.344 391.217 124.901L391.451 132.817C391.701 141.294 389.853 149.192 385.907 156.511C381.961 163.831 376.451 169.676 369.377 174.046C362.303 178.417 354.448 180.73 345.811 180.984L281.759 182.874L276.805 14.9473ZM344.884 149.558C349.362 149.426 352.998 147.878 355.792 144.914C358.741 141.786 360.152 138.063 360.024 133.745L359.791 125.828C359.663 121.51 358.038 117.956 354.914 115.167C351.946 112.214 348.223 110.803 343.745 110.935L310.879 111.905L312.019 150.528L344.884 149.558ZM338.02 79.6501C342.498 79.518 346.134 77.9701 348.927 75.0064C351.876 71.878 353.285 68.0748 353.153 63.5968L353.032 59.5186C352.905 55.2005 351.279 51.6468 348.156 48.8578C345.187 45.904 341.464 44.4932 336.986 44.6253L308.918 45.4535L309.952 80.4782L338.02 79.6501Z" "/>
<path d="M185.476 185.715C177 185.965 169.102 184.117 161.783 180.172C154.618 176.061 148.771 170.471 144.24 163.402C139.87 156.327 137.56 148.552 137.31 140.076L133.742 19.1685L165.169 18.2412L168.736 139.149C168.859 143.307 170.484 146.86 173.612 149.809C176.741 152.758 180.384 154.172 184.542 154.049L208.052 153.355C212.37 153.228 216.004 151.6 218.953 148.472C221.902 145.343 223.315 141.7 223.192 137.542L219.625 16.6345L250.811 15.7144L254.379 136.622C254.629 145.098 252.701 152.998 248.595 160.323C244.649 167.642 239.142 173.567 232.072 178.098C225.158 182.463 217.463 184.771 208.986 185.022L185.476 185.715Z" "/>
<path d="M5.51758 22.9517L71.4889 21.0052C80.1251 20.7504 88.023 22.5983 95.1827 26.5488C102.502 30.4947 108.347 36.0047 112.718 43.0789C117.088 50.1531 119.399 57.9283 119.649 66.4046L120.073 80.7984C120.328 89.4346 118.483 97.4125 114.537 104.732C110.591 112.052 105.081 117.897 98.0068 122.267C91.0926 126.633 83.3173 128.943 74.6811 129.198L39.8962 130.224L41.6586 189.958L10.4722 190.879L5.51758 22.9517ZM73.7538 97.7718C78.2319 97.6397 81.8678 96.0918 84.6616 93.1281C87.6107 89.9998 89.0191 86.1966 88.887 81.7185L88.4623 67.3248C88.3349 63.0067 86.7094 59.4531 83.5858 56.664C80.6174 53.7102 76.8941 52.2994 72.4161 52.4315L37.6312 53.4579L38.969 98.7981L73.7538 97.7718Z" "/>
</g>
<defs>
<clipPath id="clip0_2498_1137">
<rect width="794" height="396"/>
</clipPath>
</defs>
</svg>
