<svg width="1200" height="1200" viewBox="0 0 1200 1200" fill="none" xmlns="http://www.w3.org/2000/svg">
<rect width="1200" height="1200" fill="black"/>
<path d="M1011.16 1079.92C958.707 1079.92 933.442 1058.17 931.204 1019.48H978.216C979.175 1034.19 990.048 1040.9 1006.36 1040.9C1020.75 1040.9 1029.38 1035.47 1029.38 1026.19C1029.38 1016.28 1020.43 1014.68 1008.6 1010.84L988.13 1004.44C956.788 994.531 933.122 982.698 933.122 951.037C933.122 919.695 957.108 898.588 1001.24 898.588C1042.5 898.588 1070 920.015 1074.8 959.032H1029.38C1028.11 944.321 1017.55 937.605 1001.56 937.605C989.089 937.605 981.733 942.721 981.733 950.717C981.733 959.671 992.607 962.869 1002.84 966.387L1021.07 972.464C1057.21 984.616 1078.64 994.531 1078.64 1026.83C1078.64 1059.77 1053.05 1079.92 1011.16 1079.92Z" fill="white"/>
<path d="M912.649 1074.16H888.024C847.408 1074.16 825.341 1054.97 825.341 1019.16V946.24H797.518V904.665H825.341V846.779H874.592V904.665H916.167V946.24H874.592V1013.72C874.592 1025.87 880.988 1032.59 893.141 1032.59H912.649V1074.16Z" fill="white"/>
<path d="M725.177 1074.16H675.927V904.664H715.583L721.659 939.203C732.533 914.898 752.361 902.105 780.184 902.105H787.54V949.437H780.184C745.645 949.437 725.177 966.707 725.177 995.809V1074.16Z" fill="white"/>
<path d="M561.657 1079.92C506.01 1079.92 471.151 1041.54 471.151 988.134C471.151 933.767 508.569 898.588 561.657 898.588C616.984 898.588 652.163 936.325 652.163 988.134C652.163 1043.78 615.065 1079.92 561.657 1079.92ZM561.657 1038.66C586.602 1038.66 602.592 1018.84 602.592 988.134C602.592 958.712 586.602 939.843 561.657 939.843C536.712 939.843 520.721 958.712 520.721 988.134C520.721 1018.84 536.712 1038.66 561.657 1038.66Z" fill="white"/>
<path d="M340.727 1074.16H291.477V834.307H340.727V919.376C351.601 906.903 369.51 898.588 390.617 898.588C426.436 898.588 449.782 923.533 449.782 962.23V1074.16H400.531V964.789C400.531 950.717 390.937 941.123 374.947 941.123C355.438 941.123 340.727 953.595 340.727 972.144V1074.16Z" fill="white"/>
<path d="M201.952 1079.92C149.504 1079.92 124.239 1058.17 122 1019.48H169.012C169.971 1034.19 180.845 1040.9 197.155 1040.9C211.546 1040.9 220.181 1035.47 220.181 1026.19C220.181 1016.28 211.227 1014.68 199.394 1010.84L178.926 1004.44C147.585 994.531 123.919 982.698 123.919 951.037C123.919 919.695 147.905 898.588 192.038 898.588C233.293 898.588 260.797 920.015 265.594 959.032H220.181C218.902 944.321 208.348 937.605 192.358 937.605C179.885 937.605 172.53 942.721 172.53 950.717C172.53 959.671 183.403 962.869 193.637 966.387L211.866 972.464C248.005 984.616 269.432 994.531 269.432 1026.83C269.432 1059.77 243.847 1079.92 201.952 1079.92Z" fill="white"/>
<path d="M992.862 808.41C937.216 808.41 902.356 770.033 902.356 716.625C902.356 662.257 939.774 627.078 992.223 627.078C1042.11 627.078 1074.73 658.1 1076.01 699.035H1028.04C1025.48 680.806 1011.73 668.333 992.223 668.333C967.917 668.333 951.927 687.202 951.927 716.625C951.927 747.326 968.237 767.154 992.862 767.154C1011.73 767.154 1025.16 755.002 1028.04 735.813H1076.01C1072.17 779.947 1039.23 808.41 992.862 808.41Z" fill="white"/>
<path d="M849.633 616.205C833.323 616.205 820.53 603.413 820.53 586.783C820.53 570.473 833.323 558 849.633 558C866.263 558 878.735 570.473 878.735 586.783C878.735 603.413 866.263 616.205 849.633 616.205ZM874.258 802.654H825.008V633.155H874.258V802.654Z" fill="white"/>
<path d="M787.649 802.654H738.398V562.797H787.649V802.654Z" fill="white"/>
<path d="M632.618 808.41C606.393 808.41 584.327 795.938 575.052 774.83L570.575 802.654H530.918V562.797H580.169V650.744C591.682 636.033 610.871 627.078 633.257 627.078C678.03 627.078 710.011 663.856 710.011 716.945C710.011 770.992 678.03 808.41 632.618 808.41ZM620.145 767.794C643.811 767.794 660.121 747.007 660.121 717.265C660.121 688.162 643.811 667.694 620.145 667.694C596.479 667.694 580.169 687.842 580.169 716.625C580.169 746.687 596.479 767.794 620.145 767.794Z" fill="white"/>
<path d="M397.6 808.41C358.583 808.41 335.237 783.464 335.237 744.768V633.154H384.488V742.209C384.488 756.281 394.082 765.875 410.712 765.875C430.54 765.875 444.292 753.083 444.292 734.854V633.154H493.543V802.653H453.886L450.049 779.307C441.414 796.577 421.586 808.41 397.6 808.41Z" fill="white"/>
<path d="M171.891 866.615H122.64V633.154H162.296L166.774 658.419C177.008 639.551 198.755 627.078 224.979 627.078C269.752 627.078 301.733 663.856 301.733 716.944C301.733 770.992 269.752 808.41 224.339 808.41C201.633 808.41 182.764 799.135 171.891 783.784V866.615ZM211.867 767.794C235.533 767.794 251.843 747.006 251.843 717.264C251.843 688.162 235.533 667.694 211.867 667.694C188.201 667.694 171.891 687.842 171.891 716.625C171.891 746.687 188.201 767.794 211.867 767.794Z" fill="white"/>
</svg>
